<?xml version="1.0" standalone="no"?>
<!DOCTYPE svg PUBLIC "-//W3C//DTD SVG 20010904//EN"
 "http://www.w3.org/TR/2001/REC-SVG-20010904/DTD/svg10.dtd">
<svg version="1.0" xmlns="http://www.w3.org/2000/svg"
 width="500.000000pt" height="500.000000pt" viewBox="0 0 500.000000 500.000000"
 preserveAspectRatio="xMidYMid meet">
<metadata>
Created by potrace 1.11, written by Peter Selinger 2001-2013
</metadata>
<g transform="translate(0.000000,500.000000) scale(0.100000,-0.100000)"
fill="#000000" stroke="none">
<path d="M830 4507 c-19 -7 -39 -14 -43 -14 -4 -1 -29 -12 -55 -24 -56 -28
-129 -97 -165 -159 -51 -87 -57 -138 -57 -460 l0 -297 25 -23 24 -23 1476 1
c812 0 1495 3 1518 7 55 9 144 38 193 63 100 51 164 113 314 306 82 105 153
196 158 201 142 177 262 342 262 361 0 14 -11 36 -25 50 l-24 24 -1783 0
c-1397 -1 -1791 -4 -1818 -13z"/>
<path d="M912 2998 c-76 -5 -106 -12 -155 -36 -114 -57 -180 -129 -223 -246
-22 -61 -23 -75 -24 -371 -1 -305 0 -308 22 -332 l22 -23 645 0 c718 1 704 0
844 70 107 55 162 106 296 281 44 57 85 109 90 115 5 6 60 76 121 155 61 79
118 152 126 162 62 74 103 141 100 160 -3 12 -5 25 -5 29 -1 4 -12 15 -26 24
-22 14 -111 16 -882 17 -472 1 -900 -1 -951 -5z"/>
<path d="M861 1474 c-160 -27 -283 -136 -331 -292 -18 -58 -20 -94 -20 -362 0
-286 1 -298 21 -324 l21 -26 1511 2 1512 3 79 28 c93 33 173 80 236 139 25 24
149 176 275 338 126 162 248 320 272 351 24 30 43 63 43 72 0 32 -24 68 -49
74 -48 12 -3498 9 -3570 -3z"/>
</g>
</svg>
