<?xml version="1.0" encoding="UTF-8"?>
<svg width="54px" height="59px" viewBox="0 0 54 59" version="1.1" xmlns="http://www.w3.org/2000/svg" xmlns:xlink="http://www.w3.org/1999/xlink">
    <!-- Generator: Sketch 50.2 (55047) - http://www.bohemiancoding.com/sketch -->
    <title>achievements-01</title>
    <desc>Created with Sketch.</desc>
    <defs>
        <linearGradient x1="49.9828722%" y1="3.05921053%" x2="49.9828722%" y2="130.991667%" id="linearGradient-1">
            <stop stop-color="#FDFC93" offset="0%"></stop>
            <stop stop-color="#F7D267" offset="100%"></stop>
        </linearGradient>
        <linearGradient x1="50.0295527%" y1="1.34404476%" x2="50.0295527%" y2="98.8963229%" id="linearGradient-2">
            <stop stop-color="#FDFC93" offset="0%"></stop>
            <stop stop-color="#F7D267" offset="100%"></stop>
        </linearGradient>
        <linearGradient x1="39.4021987%" y1="73.0592282%" x2="75.4507329%" y2="-5.56308725%" id="linearGradient-3">
            <stop stop-color="#232C3E" offset="0%"></stop>
            <stop stop-color="#26384E" offset="13.84%"></stop>
            <stop stop-color="#2E5777" offset="40.83%"></stop>
            <stop stop-color="#3C89B9" offset="77.95%"></stop>
            <stop stop-color="#44A9E4" offset="100%"></stop>
        </linearGradient>
        <linearGradient x1="50.0418552%" y1="103.890158%" x2="50.0418552%" y2="-3.94570136%" id="linearGradient-4">
            <stop stop-color="#FDFC93" offset="0%"></stop>
            <stop stop-color="#F7D267" offset="100%"></stop>
        </linearGradient>
        <linearGradient x1="-3.60996852%" y1="50.294%" x2="103.582686%" y2="50.294%" id="linearGradient-5">
            <stop stop-color="#FDFC93" offset="0%"></stop>
            <stop stop-color="#F7D267" offset="100%"></stop>
        </linearGradient>
        <linearGradient x1="36.1358306%" y1="17.1239933%" x2="82.8671824%" y2="127.802517%" id="linearGradient-6">
            <stop stop-color="#59DDE4" offset="0%"></stop>
            <stop stop-color="#45A0E5" offset="100%"></stop>
        </linearGradient>
        <linearGradient x1="70.8867715%" y1="0.0102768782%" x2="10.7492137%" y2="86.5929757%" id="linearGradient-7">
            <stop stop-color="#FFFFFF" offset="0%"></stop>
            <stop stop-color="#FFFFFF" stop-opacity="0" offset="87.72%"></stop>
        </linearGradient>
    </defs>
    <g id="Homepage-Update" stroke="none" stroke-width="1" fill="none" fill-rule="evenodd">
        <g id="Home-Page-update---1-tab" transform="translate(-268.000000, -2022.000000)">
            <g id="achievements-01" transform="translate(268.000000, 2022.000000)">
                <rect id="Rectangle-path" fill="url(#linearGradient-1)" fill-rule="nonzero" x="15.7621622" y="19.7160804" width="22.1545946" height="6.75979899"></rect>
                <path d="M45.0972973,40.2623116 C45.0972973,50.4909548 36.9243243,58.8221106 26.8248649,58.8221106 C21.2497297,58.8221106 16.2583784,56.2723618 12.9016216,52.2994975 C10.187027,49.0678392 8.55243243,44.8577889 8.55243243,40.2919598 C8.55243243,30.0336683 16.7254054,21.7321608 26.8248649,21.7321608 C32.0497297,21.7321608 36.7783784,23.9557789 40.1059459,27.5432161 C43.2,30.8638191 45.0972973,35.3407035 45.0972973,40.2623116 Z" id="Shape" fill="url(#linearGradient-2)" fill-rule="nonzero"></path>
                <polygon id="Shape" fill="url(#linearGradient-3)" fill-rule="nonzero" points="17.9805405 17.818593 36.107027 17.818593 53.8248649 0.148241206 35.6983784 0.148241206"></polygon>
                <ellipse id="Oval" stroke="url(#linearGradient-4)" stroke-width="2.00031768" cx="26.8248649" cy="40.2623116" rx="12.9016216" ry="13.1045226"></ellipse>
                <path d="M32.0497297,35.0442211 L23.6432432,35.0442211 C22.5924324,35.0442211 21.7167568,35.9040201 21.7167568,37.001005 L21.7167568,45.5396985 C21.7167568,45.6286432 21.7751351,45.6879397 21.8627027,45.6879397 L30.2691892,45.6879397 C31.32,45.6879397 32.1956757,44.8281407 32.1956757,43.7311558 L32.1956757,35.1924623 C32.1956757,35.1331658 32.1372973,35.0442211 32.0497297,35.0442211 Z M22.7967568,40.1733668 C22.7967568,39.698995 23.1762162,39.2839196 23.6724324,39.2839196 L27.3502703,39.2839196 C27.4086486,39.2839196 27.467027,39.3135678 27.4962162,39.3728643 C27.5254054,39.4321608 27.5254054,39.4914573 27.467027,39.5211055 L26.4162162,40.8849246 C26.1535135,41.2110553 25.7740541,41.418593 25.3654054,41.418593 L22.9427027,41.418593 C22.8551351,41.418593 22.7967568,41.3592965 22.7967568,41.2703518 L22.7967568,40.1733668 Z M30.9697297,42.7231156 L29.9189189,44.0869347 C29.6562162,44.4130653 29.2767568,44.620603 28.8681081,44.620603 L22.9427027,44.620603 C22.8551351,44.620603 22.7967568,44.5613065 22.7967568,44.4723618 L22.7967568,43.3753769 C22.7967568,42.901005 23.1762162,42.4859296 23.6724324,42.4859296 L30.852973,42.4859296 C30.9113514,42.4859296 30.9697297,42.5155779 30.9989189,42.5748744 C30.9989189,42.6341709 30.9989189,42.6934673 30.9697297,42.7231156 Z M30.9697297,36.3487437 L29.9189189,37.7125628 C29.6562162,38.0386935 29.2767568,38.2462312 28.8681081,38.2462312 L22.9427027,38.2462312 C22.8551351,38.2462312 22.7967568,38.1869347 22.7967568,38.0979899 L22.7967568,37.001005 C22.7967568,36.5266332 23.1762162,36.1115578 23.6724324,36.1115578 L30.852973,36.1115578 C30.9113514,36.1115578 30.9697297,36.141206 30.9989189,36.2005025 C30.9989189,36.259799 30.9989189,36.3190955 30.9697297,36.3487437 Z" id="Shape" fill="#F7CF63" fill-rule="nonzero"></path>
                <path d="M39.2886486,16.7809045 L14.3902703,16.7809045 C13.572973,16.7809045 12.9308108,17.4331658 12.9308108,18.2633166 C12.9308108,19.0934673 13.572973,19.7457286 14.3902703,19.7457286 L39.2886486,19.7457286 C40.1059459,19.7457286 40.7481081,19.0934673 40.7481081,18.2633166 C40.7481081,17.4628141 40.1059459,16.7809045 39.2886486,16.7809045 Z" id="Shape" stroke="url(#linearGradient-5)" stroke-width="2.00031768"></path>
                <polygon id="Shape" fill="url(#linearGradient-6)" fill-rule="nonzero" points="35.9027027 17.818593 17.7762162 17.818593 0.0583783784 0.148241206 18.1848649 0.148241206"></polygon>
                <path d="M40.1059459,27.5432161 C40.1059459,27.5432161 30.0064865,28.6994975 26.387027,40.9145729 C22.7675676,53.1296482 12.9016216,52.2698492 12.9016216,52.2698492 C10.187027,49.038191 8.55243243,44.8281407 8.55243243,40.2623116 C8.55243243,30.0040201 16.7254054,21.7025126 26.8248649,21.7025126 C32.0789189,21.7025126 36.7783784,23.9557789 40.1059459,27.5432161 Z" id="Shape" fill="url(#linearGradient-7)" fill-rule="nonzero" opacity="0.3"></path>
            </g>
        </g>
    </g>
</svg>