<?xml version="1.0" encoding="UTF-8"?>
<svg width="37px" height="56px" viewBox="0 0 37 56" version="1.1" xmlns="http://www.w3.org/2000/svg" xmlns:xlink="http://www.w3.org/1999/xlink">
    <!-- Generator: Sketch 50.2 (55047) - http://www.bohemiancoding.com/sketch -->
    <title>achievements-03</title>
    <desc>Created with Sketch.</desc>
    <defs>
        <linearGradient x1="49.9551553%" y1="97.622314%" x2="49.9551553%" y2="30.2760331%" id="linearGradient-1">
            <stop stop-color="#E29A76" offset="0%"></stop>
            <stop stop-color="#993E24" offset="100%"></stop>
        </linearGradient>
        <linearGradient x1="49.9356601%" y1="100.946053%" x2="49.9356601%" y2="0.750657895%" id="linearGradient-2">
            <stop stop-color="#232C3E" offset="0%"></stop>
            <stop stop-color="#26384E" offset="13.84%"></stop>
            <stop stop-color="#2E5777" offset="40.83%"></stop>
            <stop stop-color="#3C89B9" offset="77.95%"></stop>
            <stop stop-color="#44A9E4" offset="100%"></stop>
        </linearGradient>
        <linearGradient x1="50.0104669%" y1="1.43516566%" x2="50.0104669%" y2="98.9914157%" id="linearGradient-3">
            <stop stop-color="#E29A76" offset="0%"></stop>
            <stop stop-color="#993E24" offset="100%"></stop>
        </linearGradient>
        <linearGradient x1="50.0147872%" y1="103.877766%" x2="50.0147872%" y2="-3.78457447%" id="linearGradient-4">
            <stop stop-color="#E29A76" offset="0%"></stop>
            <stop stop-color="#993E24" offset="100%"></stop>
        </linearGradient>
        <linearGradient x1="73.579599%" y1="-2.12060591%" x2="28.0781168%" y2="58.568891%" id="linearGradient-5">
            <stop stop-color="#FFFFFF" offset="0%"></stop>
            <stop stop-color="#FFFFFF" stop-opacity="0" offset="87.72%"></stop>
        </linearGradient>
    </defs>
    <g id="Homepage-Update" stroke="none" stroke-width="1" fill="none" fill-rule="evenodd">
        <g id="Home-Page-update---1-tab" transform="translate(-277.000000, -2276.000000)">
            <g id="achievements-03" transform="translate(277.000000, 2276.000000)">
                <path d="M27.942344,39.7681159 L9.02967864,39.7681159 C8.02249527,39.7681159 7.23913043,38.8928015 7.23913043,37.8363876 L7.23913043,32.4637681 L29.7608696,32.4637681 L29.7608696,37.8363876 C29.7608696,38.8928015 28.9495274,39.7681159 27.942344,39.7681159 Z" id="Shape" fill="url(#linearGradient-1)" fill-rule="nonzero"></path>
                <path d="M26.3274395,56 L11.4488355,56 C10.4382134,56 9.65217391,55.1870709 9.65217391,54.2059497 L9.65217391,38.9565217 L28.1521739,38.9565217 L28.1521739,54.2059497 C28.1521739,55.1870709 27.3380616,56 26.3274395,56 Z" id="Shape" fill="url(#linearGradient-2)" fill-rule="nonzero"></path>
                <ellipse id="Oval" fill="url(#linearGradient-3)" fill-rule="nonzero" cx="18.5" cy="18.6666667" rx="18.5" ry="18.6666667"></ellipse>
                <ellipse id="Oval" stroke="url(#linearGradient-4)" stroke-width="5.898582" cx="18.9021739" cy="19.0724638" rx="13.2717391" ry="13.3913043"></ellipse>
                <path d="M23.992849,13.7971014 L15.6001144,13.7971014 C14.5544622,13.7971014 13.673913,14.6578185 13.673913,15.740656 L13.673913,24.2090008 C13.673913,24.292296 13.7289474,24.3478261 13.8114989,24.3478261 L22.2042334,24.3478261 C23.2498856,24.3478261 24.1304348,23.4871091 24.1304348,22.4042715 L24.1304348,13.9636918 C24.1304348,13.8803966 24.0754005,13.7971014 23.992849,13.7971014 Z M14.7195652,18.9058734 C14.7195652,18.4338673 15.1048055,18.0173913 15.6001144,18.0173913 L19.259897,18.0173913 C19.3149314,18.0173913 19.3699657,18.0451564 19.3974828,18.1006865 C19.425,18.1562166 19.425,18.2117468 19.3699657,18.2672769 L18.3243135,19.6277651 C18.076659,19.9609458 17.6914188,20.1553013 17.2786613,20.1553013 L14.857151,20.1553013 C14.7745995,20.1553013 14.7195652,20.0997712 14.7195652,20.016476 L14.7195652,18.9058734 Z M22.8921625,21.4324943 L21.8465103,22.7929825 C21.5988558,23.1261632 21.2136156,23.3205187 20.8008581,23.3205187 L14.857151,23.3205187 C14.7745995,23.3205187 14.7195652,23.2649886 14.7195652,23.1816934 L14.7195652,22.0988558 C14.7195652,21.6268497 15.1048055,21.2103738 15.6001144,21.2103738 L22.809611,21.2103738 C22.8646453,21.2103738 22.9196796,21.2381388 22.9471968,21.293669 C22.9471968,21.321434 22.9471968,21.4047292 22.8921625,21.4324943 Z M22.8921625,15.1020595 L21.8465103,16.4625477 C21.5988558,16.7957285 21.2136156,16.9900839 20.8008581,16.9900839 L14.857151,16.9900839 C14.7745995,16.9900839 14.7195652,16.9345538 14.7195652,16.8512586 L14.7195652,15.7684211 C14.7195652,15.296415 15.1048055,14.879939 15.6001144,14.879939 L22.809611,14.879939 C22.8646453,14.879939 22.9196796,14.907704 22.9471968,14.9632342 C22.9471968,14.9909992 22.9471968,15.0465294 22.8921625,15.1020595 Z" id="Shape" fill="#993E24" fill-rule="nonzero"></path>
                <path d="M32.173913,5.86131465 C32.173913,5.86131465 21.8793829,7.01661847 18.1767181,19.3586447 C14.4740533,31.7006708 4.43197756,30.8271484 4.43197756,30.8271484 C1.65497896,27.558484 0,23.3317627 0,18.7105474 C0,8.36916928 8.33099579,0.000261121199 18.6255259,0.000261121199 C23.9551192,-0.0279170208 28.7798036,2.22633434 32.173913,5.86131465 Z" id="Shape" fill="url(#linearGradient-5)" fill-rule="nonzero" opacity="0.25"></path>
            </g>
        </g>
    </g>
</svg>