<?xml version="1.0" encoding="UTF-8"?>
<svg width="42px" height="59px" viewBox="0 0 42 59" version="1.1" xmlns="http://www.w3.org/2000/svg" xmlns:xlink="http://www.w3.org/1999/xlink">
    <!-- Generator: Sketch 50.2 (55047) - http://www.bohemiancoding.com/sketch -->
    <title>achievements-05</title>
    <desc>Created with Sketch.</desc>
    <defs>
        <linearGradient x1="49.9929776%" y1="1.88108439%" x2="49.9929776%" y2="100.333347%" id="linearGradient-1">
            <stop stop-color="#59DDE4" offset="0%"></stop>
            <stop stop-color="#45A0E5" offset="100%"></stop>
        </linearGradient>
        <linearGradient x1="50.0506977%" y1="99.3633929%" x2="50.0506977%" y2="-0.2%" id="linearGradient-2">
            <stop stop-color="#FDFC93" offset="0%"></stop>
            <stop stop-color="#F7D267" offset="100%"></stop>
        </linearGradient>
        <linearGradient x1="49.9791566%" y1="-29.4669492%" x2="49.9791566%" y2="129.288983%" id="linearGradient-3">
            <stop stop-color="#FDFC93" offset="0%"></stop>
            <stop stop-color="#F7D267" offset="100%"></stop>
        </linearGradient>
        <linearGradient x1="49.9929776%" y1="-4.7553719%" x2="49.9929776%" y2="119.049174%" id="linearGradient-4">
            <stop stop-color="#59DDE4" offset="0%"></stop>
            <stop stop-color="#45A0E5" offset="100%"></stop>
        </linearGradient>
        <linearGradient x1="49.9857955%" y1="96.3606596%" x2="49.9857955%" y2="-0.628975265%" id="linearGradient-5">
            <stop stop-color="#232C3E" offset="0%"></stop>
            <stop stop-color="#26384E" offset="13.84%"></stop>
            <stop stop-color="#2E5777" offset="40.83%"></stop>
            <stop stop-color="#3C89B9" offset="77.95%"></stop>
            <stop stop-color="#44A9E4" offset="100%"></stop>
        </linearGradient>
        <linearGradient x1="82.5478393%" y1="-9.47941176%" x2="34.2278717%" y2="43.0609244%" id="linearGradient-6">
            <stop stop-color="#FFFFFF" offset="0%"></stop>
            <stop stop-color="#FFFFFF" stop-opacity="0" offset="87.72%"></stop>
        </linearGradient>
    </defs>
    <g id="Homepage-Update" stroke="none" stroke-width="1" fill="none" fill-rule="evenodd">
        <g id="Home-Page-update---1-tab" transform="translate(-274.000000, -1891.000000)">
            <g id="achievements-05" transform="translate(274.000000, 1891.000000)">
                <path d="M41.942069,37.7189055 C41.9131034,38.1004975 41.7682759,38.4820896 41.4496552,38.8049751 L22.3034483,58.2074627 C21.9558621,58.5597015 21.4924138,58.7358209 21.0289655,58.7064677 C20.6234483,58.6771144 20.2468966,58.5303483 19.9282759,58.2074627 L13.382069,51.5736318 L0.782068966,38.8049751 C0.492413793,38.5114428 0.31862069,38.1298507 0.289655172,37.7189055 C0.260689655,37.278607 0.405517241,36.8089552 0.724137931,36.4567164 L5.44551724,31.1731343 C5.76413793,30.8208955 6.19862069,30.6154229 6.69103448,30.6154229 L35.5696552,30.6154229 C35.7434483,30.6154229 35.9172414,30.6447761 36.062069,30.7034826 C36.3517241,30.7915423 36.5834483,30.9676617 36.7862069,31.1731343 L41.5075862,36.4567164 C41.8262069,36.8089552 41.9710345,37.278607 41.942069,37.7189055 Z" id="Shape" fill="url(#linearGradient-1)" fill-rule="nonzero"></path>
                <rect id="Rectangle-path" fill="url(#linearGradient-2)" fill-rule="nonzero" x="11.6731034" y="27.3572139" width="18.6827586" height="3.28756219"></rect>
                <path d="M31.4855172,23.8935323 L10.5724138,23.8935323 C9.70344828,23.8935323 9.00827586,24.59801 9.00827586,25.478607 L9.00827586,25.7721393 C9.00827586,26.6527363 9.70344828,27.3572139 10.5724138,27.3572139 L31.4855172,27.3572139 C32.3544828,27.3572139 33.0496552,26.6527363 33.0496552,25.7721393 L33.0496552,25.478607 C33.0496552,24.59801 32.3255172,23.8935323 31.4855172,23.8935323 Z" id="Shape" stroke="url(#linearGradient-3)" stroke-width="2.0286612"></path>
                <path d="M41.942069,37.7189055 L0.289655172,37.7189055 C0.260689655,37.278607 0.405517241,36.8089552 0.724137931,36.4567164 L5.44551724,31.1731343 C5.76413793,30.8208955 6.19862069,30.6154229 6.69103448,30.6154229 L35.5696552,30.6154229 C35.7434483,30.6154229 35.9172414,30.6447761 36.062069,30.7034826 C36.3517241,30.7915423 36.5834483,30.9676617 36.7862069,31.1731343 L41.5075862,36.4567164 C41.8262069,36.8089552 41.9710345,37.278607 41.942069,37.7189055 Z" id="Shape" fill="url(#linearGradient-4)" fill-rule="nonzero"></path>
                <path d="M12.8027586,0 L29.4,0 C30.4427586,0 31.3117241,0.851243781 31.3117241,1.93731343 L31.3117241,24.9208955 L10.92,24.9208955 L10.92,1.93731343 C10.92,0.851243781 11.76,0 12.8027586,0 Z" id="Shape" fill="url(#linearGradient-5)" fill-rule="nonzero"></path>
                <path d="M36.062069,30.7034826 C35.0193103,31.1437811 29.6896552,33.521393 25.5475862,37.7189055 C23.6358621,39.6562189 22.0137931,41.9751244 21.1158621,44.6756219 C19.9282759,48.3741294 16.742069,50.4288557 13.382069,51.5736318 L0.782068966,38.8049751 C0.492413793,38.5114428 0.31862069,38.1298507 0.289655172,37.7189055 C0.260689655,37.278607 0.405517241,36.8089552 0.724137931,36.4567164 L5.44551724,31.1731343 C5.76413793,30.8208955 6.19862069,30.6154229 6.69103448,30.6154229 L35.5696552,30.6154229 C35.7144828,30.6154229 35.8882759,30.6447761 36.062069,30.7034826 Z" id="Shape" fill="url(#linearGradient-6)" fill-rule="nonzero" opacity="0.25"></path>
            </g>
        </g>
    </g>
</svg>