<?xml version="1.0" encoding="UTF-8"?>
<svg width="52px" height="50px" viewBox="0 0 52 50" version="1.1" xmlns="http://www.w3.org/2000/svg" xmlns:xlink="http://www.w3.org/1999/xlink">
    <!-- Generator: Sketch 50.2 (55047) - http://www.bohemiancoding.com/sketch -->
    <title>achievements-04</title>
    <desc>Created with Sketch.</desc>
    <defs>
        <linearGradient x1="50.0780718%" y1="-0.0505172414%" x2="50.0780718%" y2="99.8703448%" id="linearGradient-1">
            <stop stop-color="#FDFC93" offset="0%"></stop>
            <stop stop-color="#F7D267" offset="100%"></stop>
        </linearGradient>
        <linearGradient x1="49.9219282%" y1="-0.0505172414%" x2="49.9219282%" y2="99.8703448%" id="linearGradient-2">
            <stop stop-color="#FDFC93" offset="0%"></stop>
            <stop stop-color="#F7D267" offset="100%"></stop>
        </linearGradient>
        <linearGradient x1="50.1976285%" y1="101.047945%" x2="50.1976285%" y2="0.861643836%" id="linearGradient-3">
            <stop stop-color="#FDFC93" offset="0%"></stop>
            <stop stop-color="#F7D267" offset="100%"></stop>
        </linearGradient>
        <linearGradient x1="50%" y1="-0.282226057%" x2="50%" y2="91.1467645%" id="linearGradient-4">
            <stop stop-color="#FDFC93" offset="0%"></stop>
            <stop stop-color="#F7D267" offset="100%"></stop>
        </linearGradient>
        <linearGradient x1="49.84375%" y1="89.4248408%" x2="49.84375%" y2="-6.15923567%" id="linearGradient-5">
            <stop stop-color="#FDFC93" offset="0%"></stop>
            <stop stop-color="#F7D267" offset="100%"></stop>
        </linearGradient>
        <linearGradient x1="49.9029126%" y1="101.067112%" x2="49.9029126%" y2="0.955882353%" id="linearGradient-6">
            <stop stop-color="#232C3E" offset="0%"></stop>
            <stop stop-color="#26384E" offset="13.84%"></stop>
            <stop stop-color="#2E5777" offset="40.83%"></stop>
            <stop stop-color="#3C89B9" offset="77.95%"></stop>
            <stop stop-color="#44A9E4" offset="100%"></stop>
        </linearGradient>
        <linearGradient x1="49.9514091%" y1="98.4647059%" x2="49.9514091%" y2="0.159358289%" id="linearGradient-7">
            <stop stop-color="#59DDE4" offset="0%"></stop>
            <stop stop-color="#45A0E5" offset="100%"></stop>
        </linearGradient>
        <linearGradient x1="68.4088091%" y1="-29.7970954%" x2="23.6903752%" y2="42.5856846%" id="linearGradient-8">
            <stop stop-color="#FFFFFF" offset="0%"></stop>
            <stop stop-color="#FFFFFF" stop-opacity="0" offset="87.72%"></stop>
        </linearGradient>
    </defs>
    <g id="Homepage-Update" stroke="none" stroke-width="1" fill="none" fill-rule="evenodd">
        <g id="Home-Page-update---1-tab" transform="translate(-269.000000, -1774.000000)" fill-rule="nonzero">
            <g id="achievements-04" transform="translate(269.000000, 1774.000000)">
                <path d="M49.816,2.11734694 C49.66,4.74489796 48.932,8.7755102 46.722,11.0459184 C45.942,11.8367347 45.032,12.3979592 43.966,12.6785714 L44.174,2.09183673 L49.816,2.09183673 L49.816,2.11734694 Z M51.844,0.153061224 L42.198,0.153061224 L41.912,14.9489796 C52.624,14.9234694 51.844,0.153061224 51.844,0.153061224 Z" id="Shape" fill="url(#linearGradient-1)"></path>
                <path d="M7.826,2.11734694 L8.034,12.7040816 C6.968,12.4234694 6.058,11.8622449 5.278,11.0714286 C3.536,9.28571429 2.782,6.50510204 2.444,4.48979592 C2.314,3.62244898 2.236,2.80612245 2.184,2.14285714 L7.826,2.14285714 L7.826,2.11734694 Z M9.802,0.153061224 L0.156,0.153061224 C0.156,0.153061224 -0.624,14.9489796 10.088,14.9489796 L9.802,0.153061224 Z" id="Shape" fill="url(#linearGradient-2)"></path>
                <rect id="Rectangle-path" fill="url(#linearGradient-3)" x="22.698" y="28.9540816" width="6.578" height="7.44897959"></rect>
                <path d="M44.278,0.153061224 L44.278,11.7857143 C44.278,21.6836735 36.088,29.7193878 26,29.7193878 C21.112,29.7193878 16.666,27.8316327 13.39,24.744898 C9.906,21.4795918 7.722,16.8877551 7.722,11.7857143 L7.722,0.153061224 L44.278,0.153061224 Z" id="Shape" fill="url(#linearGradient-4)"></path>
                <path d="M34.294,40.3316327 L17.706,40.3316327 L17.706,37.9846939 C17.706,37.0663265 18.46,36.3265306 19.396,36.3265306 L32.656,36.3265306 C33.592,36.3265306 34.346,37.0663265 34.346,37.9846939 L34.346,40.3316327 L34.294,40.3316327 Z" id="Shape" fill="url(#linearGradient-5)"></path>
                <path d="M39.364,49.8469388 L12.636,49.8469388 L12.636,41.9642857 C12.636,41.0459184 13.39,40.3061224 14.326,40.3061224 L37.726,40.3061224 C38.662,40.3061224 39.416,41.0459184 39.416,41.9642857 L39.416,49.8469388 L39.364,49.8469388 Z" id="Shape" fill="url(#linearGradient-6)"></path>
                <rect id="Rectangle-path" fill="url(#linearGradient-7)" x="12.636" y="45.0765306" width="26.754" height="4.77040816"></rect>
                <path d="M30.81,9.08163265 L22.854,9.08163265 C21.84,9.08163265 21.034,9.87244898 21.034,10.8673469 L21.034,18.6734694 C21.034,18.75 21.086,18.8010204 21.164,18.8010204 L29.12,18.8010204 C30.134,18.8010204 30.94,18.0102041 30.94,17.0153061 L30.94,9.20918367 C30.966,9.13265306 30.888,9.08163265 30.81,9.08163265 Z M22.048,13.7755102 C22.048,13.3418367 22.412,12.9591837 22.88,12.9591837 L26.364,12.9591837 C26.416,12.9591837 26.468,12.9846939 26.494,13.0357143 C26.52,13.0867347 26.52,13.1377551 26.468,13.1887755 L25.48,14.4387755 C25.246,14.744898 24.882,14.9234694 24.492,14.9234694 L22.204,14.9234694 C22.126,14.9234694 22.074,14.872449 22.074,14.7959184 L22.074,13.7755102 L22.048,13.7755102 Z M29.796,16.122449 L28.808,17.372449 C28.574,17.6785714 28.21,17.8571429 27.82,17.8571429 L22.178,17.8571429 C22.1,17.8571429 22.048,17.8061224 22.048,17.7295918 L22.048,16.7346939 C22.048,16.3010204 22.412,15.9183673 22.88,15.9183673 L29.692,15.9183673 C29.744,15.9183673 29.796,15.9438776 29.822,15.994898 C29.822,16.0204082 29.822,16.0714286 29.796,16.122449 Z M29.796,10.2806122 L28.808,11.5306122 C28.574,11.8367347 28.21,12.0153061 27.82,12.0153061 L22.178,12.0153061 C22.1,12.0153061 22.048,11.9642857 22.048,11.8877551 L22.048,10.8928571 C22.048,10.4591837 22.412,10.0765306 22.88,10.0765306 L29.692,10.0765306 C29.744,10.0765306 29.796,10.1020408 29.822,10.1530612 C29.822,10.1785714 29.822,10.2295918 29.796,10.2806122 Z" id="Shape" fill="#F7CF63"></path>
                <path d="M39.598,0.153061224 C34.736,2.98469388 27.092,8.26530612 25.454,14.4387755 C23.946,20.2040816 17.784,23.2653061 13.39,24.744898 C9.906,21.4795918 7.722,16.8877551 7.722,11.7857143 L7.722,0.153061224 L39.598,0.153061224 Z" id="Shape" fill="url(#linearGradient-8)" opacity="0.25"></path>
            </g>
        </g>
    </g>
</svg>